<svg width="32" height="32" viewBox="0 0 32 32" fill="none" xmlns="http://www.w3.org/2000/svg">
<path fill-rule="evenodd" clip-rule="evenodd" d="M21.3334 12C21.3334 13.4145 20.7715 14.771 19.7713 15.7712C18.7711 16.7714 17.4146 17.3333 16.0001 17.3333C14.5856 17.3333 13.229 16.7714 12.2288 15.7712C11.2287 14.771 10.6667 13.4145 10.6667 12C10.6667 10.5855 11.2287 9.22896 12.2288 8.22877C13.229 7.22857 14.5856 6.66667 16.0001 6.66667C17.4146 6.66667 18.7711 7.22857 19.7713 8.22877C20.7715 9.22896 21.3334 10.5855 21.3334 12ZM18.6667 12C18.6667 12.7072 18.3858 13.3855 17.8857 13.8856C17.3856 14.3857 16.7073 14.6667 16.0001 14.6667C15.2928 14.6667 14.6146 14.3857 14.1145 13.8856C13.6144 13.3855 13.3334 12.7072 13.3334 12C13.3334 11.2928 13.6144 10.6145 14.1145 10.1144C14.6146 9.61429 15.2928 9.33334 16.0001 9.33334C16.7073 9.33334 17.3856 9.61429 17.8857 10.1144C18.3858 10.6145 18.6667 11.2928 18.6667 12Z" fill="#396140"/>
<path fill-rule="evenodd" clip-rule="evenodd" d="M16 1.33334C7.90004 1.33334 1.33337 7.9 1.33337 16C1.33337 24.1 7.90004 30.6667 16 30.6667C24.1 30.6667 30.6667 24.1 30.6667 16C30.6667 7.9 24.1 1.33334 16 1.33334ZM4.00004 16C4.00004 18.7867 4.95071 21.352 6.54404 23.3893C7.6633 21.9202 9.10691 20.7295 10.7622 19.9103C12.4175 19.0911 14.2398 18.6655 16.0867 18.6667C17.9099 18.6645 19.7095 19.0788 21.3482 19.8778C22.987 20.6769 24.4216 21.8396 25.5427 23.2773C26.698 21.7621 27.4758 19.9936 27.8119 18.1181C28.148 16.2426 28.0326 14.314 27.4754 12.492C26.9181 10.6699 25.935 9.00673 24.6074 7.64005C23.2797 6.27337 21.6457 5.24248 19.8406 4.63268C18.0354 4.02288 16.111 3.8517 14.2265 4.1333C12.3421 4.4149 10.5518 5.14119 9.00373 6.25207C7.4557 7.36296 6.19446 8.8265 5.32435 10.5216C4.45424 12.2167 4.00028 14.0946 4.00004 16ZM16 28C13.2453 28.0045 10.5736 27.0568 8.43737 25.3173C9.29712 24.0862 10.4416 23.0809 11.7735 22.3873C13.1053 21.6936 14.5851 21.332 16.0867 21.3333C17.5696 21.332 19.0314 21.6846 20.3507 22.3618C21.67 23.0389 22.8086 24.0211 23.672 25.2267C21.5193 27.0227 18.8036 28.0044 16 28Z" fill="#396140"/>
</svg>
