<svg width="32" height="32" viewBox="0 0 32 32" fill="none" xmlns="http://www.w3.org/2000/svg">
<path d="M10.6667 10.6667V9.33333C10.6667 7.91885 11.2287 6.56229 12.2288 5.5621C13.229 4.5619 14.5856 4 16.0001 4C17.4146 4 18.7711 4.5619 19.7713 5.5621C20.7715 6.56229 21.3334 7.91885 21.3334 9.33333V10.6667M20.0001 18.6667V16M12.0001 18.6667V16" stroke="#396140" stroke-width="2" stroke-linecap="round"/>
<path d="M5.33337 16C5.33337 13.4853 5.33337 12.2293 6.11471 11.448C6.89604 10.6667 8.15204 10.6667 10.6667 10.6667H21.3334C23.848 10.6667 25.104 10.6667 25.8854 11.448C26.6667 12.2293 26.6667 13.4853 26.6667 16V17.3333C26.6667 22.3613 26.6667 24.876 25.104 26.4373C23.5414 27.9987 21.028 28 16 28C10.972 28 8.45737 28 6.89604 26.4373C5.33471 24.8747 5.33337 22.3613 5.33337 17.3333V16Z" stroke="#396140" stroke-width="2"/>
</svg>
